<?xml version="1.0" encoding="UTF-8" standalone="no"?>
<!-- Created with Inkscape (http://www.inkscape.org/) -->

<svg
   xmlns:dc="http://purl.org/dc/elements/1.1/"
   xmlns:cc="http://creativecommons.org/ns#"
   xmlns:rdf="http://www.w3.org/1999/02/22-rdf-syntax-ns#"
   xmlns:svg="http://www.w3.org/2000/svg"
   xmlns="http://www.w3.org/2000/svg"
   version="1.1"
   width="100%"
   height="100%"
   viewBox="950 1450 100 125"
   id="svg2"
   xml:space="preserve"><metadata
     id="metadata34"><rdf:RDF><cc:Work
         rdf:about=""><dc:format>image/svg+xml</dc:format><dc:type
           rdf:resource="http://purl.org/dc/dcmitype/StillImage" /><dc:title></dc:title></cc:Work></rdf:RDF></metadata><defs
     id="defs32" /><path
     d="M 36.1875,2.09375 C 30.6875,2.09375 25.50625,4.5 21.90625,8.5 20.10625,7.6 18,7.1875 16,7.1875 8.5,7.1875 2.40625,13.19375 2.40625,20.59375 2.40625,25.39375 4.9,29.7 9,32 l 0,0.40625 c 0,0.5 0.00625,1.08125 -0.09375,1.78125 -0.1,1.2 -0.20625,2.51875 -0.40625,3.71875 -0.1,0.5 -0.2125,1.0875 -0.3125,1.6875 l 0,0.09375 c 0,0.2 -0.09375,0.4 -0.09375,0.5 l 0,0.21875 c -0.1,0.3 -0.0875,0.4875 -0.1875,0.6875 -0.1,0.3 -0.11875,0.39375 -0.21875,0.59375 l 0,0.125 c -0.1,0.2 -0.0875,0.4 -0.1875,0.5 l -0.3125,0.875 c -0.2,0.4 -0.28125,0.61875 -0.28125,0.71875 -1.3,2.5 -1.3,5.5 0,8 1.5,2.9 4.3875,4.59375 7.6875,4.59375 0.667333,0 1.354327,-0.07159 2,-0.21875 l 0,31.3125 c 0,5.1 4.11875,9.21875 9.21875,9.21875 l 43.09375,0 c 5,0 9.0875,-4 9.1875,-9 11.8,-9.8 21.69375,-26.925 17.09375,-40.125 -1.4,-4.2 -5.59375,-11.2 -17.09375,-12.5 l 0,-0.71875 c 5.711014,-2.472282 9.71875,-8.155911 9.71875,-14.78125 0,-8.9 -7.225,-16.09375 -16.125,-16.09375 C 67.6875,3.59375 63.9,5.0875 61,7.6875 59.6,7.1875 58.09375,7 56.59375,7 c -2.1,0 -4.10625,0.5125 -5.90625,1.3125 -3.8,-3.8 -9,-6.21875 -14.5,-6.21875 z m 37.5,84.71875 c -49.125,25.45833 -24.5625,12.729167 0,0 z"
     transform="translate(950,1450)"
     id="path10-1"
     style="fill:#ffffff" /><g
     id="g4"><line
       fill="#000000"
       x1="977.5"
       y1="1537.6"
       x2="1017.6"
       y2="1537.6"
       id="line6"
       style="fill:#000000" /><path
       d="m 1017.6,1539.2 h -40.1 c -0.9,0 -1.6,-0.7 -1.6,-1.6 0,-0.9 0.7,-1.6 1.6,-1.6 h 40.1 c 0.9,0 1.6,0.7 1.6,1.6 0,0.9 -0.7,1.6 -1.6,1.6 z"
       id="path8" /></g><path
     d="m 1012.1,1480.8 c -1.7,0.9 -3.7,1.4 -5.7,1.4 -2.3,0 -4.5,-0.6 -6.3,-1.8 -3.2,4.3 -8.3,6.9 -13.8,6.9 -3.9,0 -7.7,-1.4 -10.7,-3.7 v 43.1 c 0,3.9 3.2,7 7,7 h 29.8 c 3.9,0 7,-3.2 7,-7 v -42.6 c -2.7,-0.3 -5.3,-1.4 -7.3,-3.3 z m -29.2,41.4 c 0,0.8 -0.6,1.4 -1.4,1.4 -0.8,0 -1.4,-0.6 -1.4,-1.4 v -30 c 0,-0.8 0.6,-1.4 1.4,-1.4 0.8,0 1.4,0.6 1.4,1.4 v 30 z"
     id="path20"
     style="fill:#ffd42a" /><path
     d="m 986.2,1455.5 c 5.7,0 10.7,3.1 13.4,7.6 1.8,-1.6 4.2,-2.5 6.8,-2.5 1.9,0 3.7,0.5 5.2,1.4 2.3,-2.9 5.9,-4.7 9.9,-4.7 7,0 12.7,5.7 12.7,12.7 0,7 -5.7,12.7 -12.7,12.7 -3.6,0 -6.9,-1.5 -9.2,-3.9 -1.7,1.2 -3.7,1.8 -5.9,1.8 -2.6,0 -5,-1 -6.8,-2.5 -2.7,4.6 -7.7,7.6 -13.4,7.6 -5.7,0 -10.7,-3.1 -13.4,-7.6 -1.7,1.4 -3.8,2.4 -6.2,2.5 0,0.6 -0.1,1.3 0,1.9 0,0.7 0,1.4 0.1,2 0.1,1.4 0.3,2.7 0.5,4 0.1,0.6 0.2,1.3 0.4,1.8 0.1,0.3 0.1,0.6 0.2,0.9 0.1,0.3 0.1,0.5 0.2,0.8 0.1,0.3 0.1,0.5 0.2,0.7 0.1,0.2 0.1,0.5 0.2,0.7 0.1,0.4 0.3,0.8 0.4,1.1 0.2,0.6 0.4,0.9 0.4,0.9 1.4,2.6 0.4,5.8 -2.2,7.1 -0.8,0.4 -1.6,0.6 -2.5,0.6 -1.9,0 -3.7,-1 -4.7,-2.8 -0.8,-1.6 -0.8,-3.4 0,-4.9 0,0 0.2,-0.3 0.4,-0.9 0.1,-0.3 0.3,-0.7 0.4,-1.1 0.1,-0.2 0.1,-0.4 0.2,-0.7 0.1,-0.2 0.1,-0.5 0.2,-0.7 0.1,-0.3 0.1,-0.5 0.2,-0.8 0.1,-0.3 0.1,-0.6 0.2,-0.9 0.1,-0.6 0.3,-1.2 0.4,-1.8 0.2,-1.3 0.4,-2.6 0.5,-4 0,-0.7 0.1,-1.4 0.1,-2 0,-0.7 0,-1.3 0,-2 0,-0.2 0,-0.4 0,-0.6 -3.8,-1.5 -6.5,-5.1 -6.5,-9.3 0,-5.5 4.6,-10 10.2,-10 2.6,0 5,1 6.8,2.5 2.6,-4.6 7.6,-7.6 13.3,-7.6 m 0,-3.4 c -5.5,0 -10.7,2.4 -14.3,6.4 -1.8,-0.9 -3.9,-1.3 -5.9,-1.3 -7.5,0 -13.6,6 -13.6,13.4 0,4.8 2.5,9.1 6.6,11.4 0,0.1 0,0.3 0,0.4 0,0.5 0,1.1 -0.1,1.8 -0.1,1.2 -0.2,2.5 -0.4,3.7 -0.1,0.5 -0.2,1.1 -0.3,1.7 l 0,0.1 c 0,0.2 -0.1,0.4 -0.1,0.5 l 0,0.2 c -0.1,0.3 -0.1,0.5 -0.2,0.7 -0.1,0.3 -0.1,0.4 -0.2,0.6 l 0,0.1 c -0.1,0.2 -0.1,0.4 -0.2,0.5 -0.1,0.3 -0.2,0.6 -0.3,0.9 -0.2,0.4 -0.3,0.6 -0.3,0.7 -1.3,2.5 -1.3,5.5 0,8 1.5,2.9 4.4,4.6 7.7,4.6 1.4,0 2.8,-0.3 4,-1 2,-1.1 3.6,-2.9 4.2,-5.1 0.7,-2.2 0.5,-4.6 -0.6,-6.6 0,0 0,0 0,0 0,0 -0.1,-0.2 -0.3,-0.6 -0.1,-0.3 -0.2,-0.6 -0.3,-0.9 -0.1,-0.2 -0.1,-0.4 -0.2,-0.6 l 0,-0.1 c -0.1,-0.2 -0.1,-0.4 -0.2,-0.6 -0.1,-0.3 -0.1,-0.5 -0.2,-0.7 l 0,-0.2 c 0,-0.2 -0.1,-0.4 -0.1,-0.6 l 0,-0.1 c -0.1,-0.6 -0.2,-1.1 -0.3,-1.7 -0.2,-1.2 -0.3,-2.4 -0.4,-3.7 0,-0.3 0,-0.6 -0.1,-0.9 0.7,-0.2 1.3,-0.5 2,-0.8 3.5,4 8.7,6.5 14.3,6.5 5.5,0 10.7,-2.4 14.3,-6.4 1.8,0.9 3.9,1.3 5.9,1.3 1.9,0 3.7,-0.4 5.4,-1.1 2.8,2.1 6.1,3.2 9.7,3.2 8.9,0 16.1,-7.2 16.1,-16.1 0,-8.9 -7.2,-16.1 -16.1,-16.1 -4,0 -7.8,1.5 -10.7,4.1 -1.4,-0.5 -2.9,-0.7 -4.4,-0.7 -2.1,0 -4.1,0.5 -5.9,1.3 -3.8,-3.8 -9,-6.2 -14.5,-6.2 l 0,0 z"
     id="path10" /><g
     id="g12"><path
       d="m 962.5,1477 c -0.1,0 -0.2,0 -0.4,-0.1 -2.9,-1.1 -4.7,-3.8 -4.7,-6.8 0,-4 3.3,-7.3 7.4,-7.3 0.5,0 1,0.4 1,1 0,0.6 -0.4,1 -1,1 -3,0 -5.4,2.4 -5.4,5.3 0,2.2 1.3,4.1 3.4,4.9 0.5,0.2 0.8,0.8 0.6,1.3 -0.1,0.5 -0.5,0.7 -0.9,0.7 z"
       id="path14" /></g><g
     id="g16"><path
       d="m 962.4,1501.4 c -0.3,0 -0.5,-0.1 -0.7,-0.3 -0.1,-0.1 -1.7,-1.9 -1.5,-4.2 0,-0.5 0.5,-1 1.1,-0.9 0.5,0 1,0.5 0.9,1.1 -0.1,1.4 1,2.7 1,2.7 0.4,0.4 0.3,1 -0.1,1.4 -0.2,0.1 -0.4,0.2 -0.7,0.2 z"
       id="path18" /></g><path
     d="m 1025.2,1524.9 c 0.2,0.1 0.5,0.1 0.8,0.1 0.6,0 1.2,-0.3 1.7,-0.8 6.8,-8 10.1,-17.6 8.1,-23.3 -0.8,-2.4 -3.2,-5.4 -9.6,-5.9 -0.6,-0.1 -1.2,0.2 -1.7,0.6 -0.4,0.4 -0.7,1 -0.7,1.6 v 25.7 c 0,0.9 0.5,1.7 1.4,2 z m 2.9,-25.2 c 1.9,0.5 3,1.4 3.5,2.6 0.9,2.7 -0.1,8 -3.5,13.7 v -16.3 z"
     id="path22" /><path
     d="m 1045.2,1497.7 c -1.4,-4.2 -5.6,-11.2 -17.1,-12.5 v -2.4 c -1.3,0.7 -2.8,1.2 -4.4,1.4 v 3 c 0,1.2 0.9,2.1 2.1,2.2 10,0.6 13.8,5.6 15.2,9.8 3.9,11.2 -5.3,27.1 -16.5,35.9 -0.5,0.4 -0.8,1 -0.8,1.7 v 0.8 c 0,2.7 -2.2,4.8 -4.8,4.8 h -43.1 c -2.7,0 -4.8,-2.2 -4.8,-4.8 v -37.2 c -0.6,1.5 -1.7,2.9 -3.3,3.7 -0.4,0.2 -0.7,0.3 -1.1,0.5 v 33 c 0,5.1 4.1,9.2 9.2,9.2 h 43.1 c 5,0 9.1,-4 9.2,-9 11.8,-9.8 21.7,-26.9 17.1,-40.1 z"
     id="path24" /><text
     x="950"
     y="1565"
     id="text26"
     style="font-size:5px;font-weight:bold;fill:#000000;font-family:'\'Helvetica Neue\', Helvetica, Arial-Unicode, Arial, Sans-serif'">Created by Fabián Sanabria</text>
<text
     x="950"
     y="1570"
     id="text28"
     style="font-size:5px;font-weight:bold;fill:#000000;font-family:'\'Helvetica Neue\', Helvetica, Arial-Unicode, Arial, Sans-serif'">from the Noun Project</text>
</svg>